<svg version="1.1" xmlns="http://www.w3.org/2000/svg" xmlns:xlink="http://www.w3.org/1999/xlink" width="612" height="612" viewBox="0,0,612,612"><g transform="translate(0,-300)"><path d="M568,352 C568,352,516,368,516,368 C516,368,516,368,516,368 C516.667,370,516.667,386,516,416 C516,416,516,419,516,419 C516,419,516,419,516,419 C516,424.333,514,428.167,510,430.5 C506,432.833,499,434,489,434 C489,434,471,434,471,434 C471,434,471,485,471,485 C471,485,490,485,490,485 C490,485,490,485,490,485 C520.667,485,542.667,476,556,458 C556,458,556,458,556,458 C564,447.333,568,435,568,421 C568,421,568,352,568,352Z M544,293 C544,293,512,262,512,262 C512,262,481,293,481,293 C481,293,512,324,512,324 C512,324,544,293,544,293Z M478,293 C478,293,446,262,446,262 C446,262,415,293,415,293 C415,293,447,324,447,324 C447,324,478,293,478,293Z M388,337 C362.667,337,343.667,346,331,364 C331,364,331,364,331,364 C320.333,379.333,315,397.833,315,419.5 C315,441.167,323,458,339,470 C339,470,339,470,339,470 C352.333,480,368.667,485,388,485 C388,485,410,485,410,485 C410,485,410,485,410,485 C410,493.667,404.667,501,394,507 C394,507,394,507,394,507 C380,514.333,359.667,518,333,518 C333,518,333,568,333,568 C333,568,333,568,333,568 C346.333,568,360,567,374,565 C388,563,401.333,559.333,414,554 C414,554,414,554,414,554 C444,540,460.333,517,463,485 C463,485,479,485,479,485 C479,485,479,435,479,435 C479,435,463,435,463,435 C463,435,463,419,463,419 C463,419,463,419,463,419 C463,396.333,456.667,377.333,444,362 C444,362,444,362,444,362 C430,345.333,411.333,337,388,337 C388,337,388,337,388,337Z M388,388 C394.667,387.333,400.167,389.833,404.5,395.5 C408.833,401.167,411,409,411,419 C411,419,411,435,411,435 C411,435,388,435,388,435 C388,435,388,435,388,435 C381.333,435,375.833,433.667,371.5,431 C367.167,428.333,364.667,424.333,364,419 C364,419,364,416,364,416 C364,416,364,416,364,416 C364,408,366.167,401.167,370.5,395.5 C374.833,389.833,380.667,387.333,388,388 C388,388,388,388,388,388Z M222,367 C200.667,367,182.667,375.333,168,392 C168,392,168,392,168,392 C163.333,398,159,404.667,155,412 C155,412,149,427,149,427 C149,427,149,427,149,427 C145,440.333,142,448,140,450 C140,450,140,450,140,450 C136.667,454,129.667,456,119,456 C119,456,121,507,121,507 C121,507,121,507,121,507 C141.667,507,156.333,502.667,165,494 C165,494,177,501,177,501 C177,501,177,501,177,501 C182.333,503.667,188,506.333,194,509 C194,509,194,509,194,509 C208.667,515,223,518.167,237,518.5 C251,518.833,263.333,513.667,274,503 C274,503,274,503,274,503 C287.333,491,294,472.333,294,447 C294,447,294,447,294,447 C294,429,289,412.333,279,397 C279,397,279,397,279,397 C266.333,377,247.333,367,222,367 C222,367,222,367,222,367Z M222,418 C228,418,233.167,421,237.5,427 C241.833,433,244.333,439.667,245,447 C245,447,245,447,245,447 C245.667,452.333,245,457.333,243,462 C241,466.667,239.333,469,238,469 C238,469,238,469,238,469 C233.333,469,227,467.667,219,465 C219,465,219,465,219,465 C209,461.667,201,457.333,195,452 C195,452,198,443,198,443 C198,443,198,443,198,443 C199.333,438.333,201,434.333,203,431 C203,431,203,431,203,431 C208.333,422.333,214.667,418,222,418 C222,418,222,418,222,418Z M124,456 C124,456,124,456,124,456 C117.333,456,112.833,454.833,110.5,452.5 C108.167,450.167,107,446,107,440 C107,440,107,306,107,306 C107,306,54,284,54,284 C54,284,54,440,54,440 C54,440,54,440,54,440 C54,450.667,56.333,461,61,471 C61,471,61,471,61,471 C63.667,477.667,67.667,483.667,73,489 C78.333,494.333,84.667,498.333,92,501 C92,501,92,501,92,501 C101.333,505,112,507,124,507 C124,507,124,456,124,456Z M275,88 C275,88,222,88,222,88 C222,88,222,185,222,185 C222,185,222,185,222,185 C222,199.667,219,210.333,213,217 C213,217,213,217,213,217 C205.667,223.667,192,227,172,227 C172,227,148,227,148,227 C148,227,148,227,148,227 C144.667,227,141,226.833,137,226.5 C133,226.167,129,225.333,125,224 C125,224,125,224,125,224 C115.667,220.667,108.5,215.5,103.5,208.5 C98.5,201.5,96,192.667,96,182 C96,182,96,176,96,176 C96,176,96,176,96,176 C97.333,158.667,103.667,138.333,115,115 C115,115,67,94,67,94 C67,94,67,94,67,94 C53,123.333,45.333,150,44,174 C44,174,44,181,44,181 C44,181,44,181,44,181 C44,201.667,49,219.667,59,235 C69,250.333,82,261.333,98,268 C98,268,98,268,98,268 C113.333,274.667,130,278,148,278 C148,278,172,278,172,278 C172,278,172,278,172,278 C190.667,278,206.667,275.667,220,271 C233.333,266.333,244.667,259,254,249 C254,249,254,249,254,249 C268,233,275,211.667,275,185 C275,185,275,88,275,88Z M167,109 C167,109,201,76,201,76 C201,76,167,44,167,44 C167,44,134,76,134,76 C134,76,167,109,167,109Z"/></g></svg>